<svg width="281" height="80" viewBox="0 0 281 80" fill="none" xmlns="http://www.w3.org/2000/svg">
<path d="M29 80C21.2516 80 13.9763 77.0014 8.49165 71.5636C6.5433 69.628 4.91029 67.4685 3.61515 65.1413C3.59262 65.1301 3.55884 65.1189 3.53631 65.1077L3.55884 65.0406C1.23883 60.8448 0 56.1119 0 51.1888V28.8112C0 21.1133 3.01825 13.8853 8.49165 8.43636C13.965 2.98741 21.2516 0 29 0C36.7483 0 44.0237 2.9986 49.5084 8.43636C54.993 13.8741 58 21.1133 58 28.8112V51.1888C58 58.8867 54.9817 66.1147 49.5084 71.5636C44.035 77.0126 36.7483 80 29 80ZM18.988 76.4531C22.1301 77.6839 25.52 78.3217 29 78.3217C32.8854 78.3217 36.647 77.5161 40.0932 75.9944C35.701 75.1217 31.2524 74.842 26.8377 75.1776C24.2023 75.3902 21.567 75.8154 18.988 76.4531ZM12.3433 72.6937C13.6722 73.7119 15.0913 74.607 16.5666 75.3566C19.8889 74.3944 23.3014 73.7678 26.7138 73.5105C31.9619 73.1077 37.2664 73.5441 42.4808 74.7972C44.1025 73.8797 45.6229 72.7944 47.0419 71.5524C43.5507 71.7315 40.0819 71.6308 36.7258 71.2727C35.0027 71.0937 33.5161 70.8587 32.0746 70.635C28.786 70.1315 25.948 69.6951 22.0625 70.0979C18.7627 70.4559 15.4967 71.3287 12.3433 72.6937ZM6.0365 65.9021C7.07262 67.5021 8.30019 69.0014 9.68544 70.3776C10.0796 70.7692 10.4738 71.1385 10.8905 71.5077C14.4493 69.8741 18.1433 68.8447 21.8711 68.4531C25.9817 68.0168 28.9212 68.4755 32.3223 68.9902C33.7414 69.214 35.2167 69.4378 36.8948 69.6168C40.7915 70.0308 44.8346 70.0867 48.9115 69.7622C51.0625 67.4797 52.7856 64.8951 54.0132 62.1091C48.979 64.7273 44.0575 65.9133 39.3386 65.6448C37.3565 65.5329 35.7122 65.186 34.1243 64.8392C31.5227 64.2909 29.0676 63.765 25.1709 64.179C22.5693 64.4587 21.0827 64.9622 19.6299 65.4657C18.2784 65.9357 16.8707 66.4168 14.6971 66.6406C11.9153 66.9427 9.00971 66.6853 6.0365 65.9021ZM4.78641 63.7762C8.14252 64.9063 11.4198 65.3091 14.5169 64.9734C16.499 64.7608 17.7604 64.3357 19.0781 63.8769C20.6097 63.3511 22.1977 62.8028 24.9907 62.5119C29.1577 62.0755 31.8606 62.6462 34.4734 63.1944C36.0726 63.5301 37.5817 63.8545 39.44 63.9552C44.3728 64.2461 49.5984 62.7916 54.9592 59.6587C55.2746 58.7077 55.5336 57.7455 55.7363 56.7608C49.7449 55.4853 43.866 55.1832 38.2575 55.8545C35.3406 56.2014 32.9192 56.772 30.5767 57.3091C27.1417 58.1035 23.5829 58.9315 18.4699 59.1105C13.1429 59.3007 7.74835 58.7301 2.4101 57.421C2.92816 59.6364 3.72777 61.7734 4.78641 63.7762ZM2.04971 55.6084C7.48932 57.007 12.9852 57.6224 18.4136 57.4434C23.3577 57.2755 26.68 56.5035 30.1938 55.6867C32.5814 55.1385 35.0478 54.5678 38.0548 54.1986C43.8322 53.5049 49.88 53.807 56.0404 55.1161C56.2318 53.8294 56.3219 52.5203 56.3219 51.1888V51.1441L1.71184 52.0168C1.73437 53.2252 1.85825 54.4224 2.04971 55.6084ZM2.98447 20.5091C2.12854 23.1608 1.68932 25.9469 1.68932 28.8112V50.3385L11.7351 50.1818V37.5497C9.1899 36.1399 7.16272 34.3944 5.72117 32.3357C3.66019 29.4042 3.42369 26.6517 3.05204 22.4895C3.02951 22.1315 2.99573 21.4825 2.98447 20.5091ZM13.4245 37.2923V50.1483L21.4206 50.0252V34.5958C20.4183 34.0587 19.4835 33.4769 18.6163 32.8503C17.3099 34.5622 15.5643 36.0503 13.4245 37.2923ZM23.1099 34.4727V50.0028L36.2866 49.7902V37.2364C33.8427 35.9832 31.9056 34.4168 30.5091 32.6042C29.7996 31.6867 29.3153 30.7804 28.955 29.8406C27.4346 31.6196 25.4862 33.1748 23.1099 34.4727ZM37.9759 37.1916V49.7566L46.5351 49.6224V40.7049C44.1701 39.3734 42.3006 37.7399 40.9491 35.8154C40.8703 35.7035 40.7915 35.5916 40.7239 35.4797C39.9017 36.0951 38.9895 36.6657 37.9759 37.1916ZM48.2245 40.6266V49.5888L56.3107 49.4545V28.8112C56.3107 28.0727 56.2769 27.3455 56.2206 26.6182C55.8827 30.4671 55.6237 33.0518 53.6866 35.8154C52.3689 37.6951 50.5332 39.3175 48.2245 40.6266ZM42.0416 34.3944C42.1429 34.551 42.2443 34.6965 42.3456 34.8531C43.5394 36.5538 45.2062 38.0196 47.3235 39.2168C49.4408 38.0196 51.1076 36.5538 52.3014 34.8531C53.9456 32.5147 54.1934 30.4112 54.5538 26.249C54.6214 25.5329 54.6439 23.2503 54.6439 19.4573C53.2924 15.8098 51.1526 12.4643 48.3033 9.63357C47.6951 9.02937 47.0532 8.44755 46.4 7.91049C46.4563 14.4559 46.5014 22.0308 46.355 23.5972C45.9833 27.4014 45.7468 29.9189 43.6746 32.6042C43.2016 33.2308 42.6497 33.8238 42.0416 34.3944ZM4.65126 16.5035C4.65126 19.7147 4.68505 21.6727 4.74136 22.3441C5.12427 26.7077 5.39456 28.9231 7.11767 31.3846C8.36777 33.1748 10.1359 34.7189 12.3658 35.972C14.4268 34.8084 16.0823 33.4098 17.3099 31.7986C16.2625 30.8923 15.3503 29.9077 14.5957 28.8559C12.2307 25.5888 11.9491 22.5343 11.5212 17.8909C11.4311 16.8839 11.3973 13.7399 11.4085 8.06713C10.8117 8.55944 10.2373 9.07413 9.68544 9.62238C7.62447 11.6699 5.93515 13.9972 4.65126 16.5035ZM30.1938 28.1734C30.5204 29.4378 31.0047 30.4783 31.8493 31.586C33.0994 33.2196 34.8563 34.6182 37.0862 35.7594C38.1223 35.2224 39.0684 34.6406 39.8905 33.9916C38.8656 31.7986 38.6629 29.5049 38.3926 26.3944C38.235 24.6601 38.3025 15.4182 38.3588 8.66014C38.3701 6.53427 38.3926 4.64336 38.3926 3.32308C36.6132 2.67413 34.7775 2.21538 32.8854 1.94685C32.9305 9.00699 32.953 16.2462 32.8066 17.8909C32.4124 22.2098 32.1421 25.1524 30.1938 28.1734ZM19.5623 31.4406C20.3507 32.0224 21.2179 32.5706 22.1526 33.0741C24.788 31.6531 26.8827 29.8965 28.3581 27.8713C28.3693 27.8601 28.3693 27.849 28.3806 27.8378C28.1216 26.5734 27.9864 25.1972 27.8287 23.586C27.6711 21.9301 27.7386 13.4825 27.7837 6.69091C27.795 4.72168 27.8175 2.96503 27.8175 1.7007C25.7227 1.79021 23.6617 2.11469 21.6796 2.65175L21.6909 3.91608C21.7472 10.9874 21.8148 20.6657 21.6458 22.4895C21.3305 26.2266 21.1052 28.8224 19.5623 31.4406ZM40.0819 3.99441C40.0707 5.25874 40.0594 6.88112 40.0482 8.67133C40.0031 15.3846 39.9355 24.5818 40.0819 26.2378C40.341 29.2028 40.5437 31.1161 41.2307 32.828C41.6361 32.4252 41.9965 32.0112 42.3344 31.5748C44.035 29.3594 44.294 27.3678 44.6769 23.4182C44.8346 21.8517 44.7557 13.1021 44.7107 6.71329V6.6014C43.2466 5.58322 41.7037 4.71049 40.0819 3.99441ZM13.0866 6.74685C13.0641 13.1245 13.0979 16.7161 13.188 17.7343C13.6384 22.6238 13.9425 25.0965 15.9584 27.8713C16.6004 28.7552 17.3662 29.5944 18.2447 30.3776C19.4159 28.2741 19.6524 26.1147 19.9903 22.3441C20.148 20.6098 20.0691 10.965 20.0241 3.93846V3.17762C17.5464 4.02797 15.2264 5.22517 13.0866 6.74685ZM29.5181 1.67832C29.5181 2.94266 29.4955 4.71049 29.4843 6.69091C29.4392 13.0797 29.3604 21.8406 29.5181 23.4182C29.5856 24.1566 29.6532 24.8392 29.732 25.4545C30.5654 23.4517 30.8132 21.2028 31.1285 17.7343C31.275 16.1455 31.2412 8.45874 31.1961 1.75664C30.6443 1.72308 30.0812 1.68951 29.5181 1.67832Z" fill="white"/>
<path d="M94.9799 52.8819H97.9289V43.7631H102.779C107.785 43.7631 111.394 40.5036 111.394 35.4979C111.394 30.5699 107.785 27.388 102.779 27.388H94.9799V52.8819ZM102.585 29.9879C106.155 29.9879 108.367 32.1609 108.367 35.5368C108.367 38.9126 106.155 41.1632 102.585 41.1632H97.9289V29.9879H102.585Z" fill="white"/>
<path d="M113.763 52.8819L115.587 47.0226H125.288L127.151 52.8819H130.216L121.99 27.388H119.002L110.853 52.8819H113.763ZM120.399 31.3848L124.551 44.4615H116.363L120.399 31.3848Z" fill="white"/>
<path d="M149.573 52.8819L144.878 42.0945C147.749 40.9692 149.612 38.4082 149.612 34.9935C149.612 30.3759 146.003 27.388 141.036 27.388H133.198V52.8819H136.147V42.8318H140.881C141.23 42.8318 141.58 42.793 141.929 42.793L146.353 52.8819H149.573ZM140.804 29.9879C144.374 29.9879 146.585 31.9668 146.585 35.0323C146.585 38.1754 144.374 40.2708 140.804 40.2708H136.147V29.9879H140.804Z" fill="white"/>
<path d="M156.583 27.388H153.634V52.8819H156.583V46.0525L160.89 40.1932L167.292 52.8819H170.63L162.946 37.7485L170.397 27.388H167.098L156.583 41.6677V27.388Z" fill="white"/>
<path d="M176.412 27.388H173.463V52.8819H187.548V50.2044H176.412V27.388Z" fill="white"/>
<path d="M184.705 27.388L192.078 42.7154V52.8819H195.027V42.6766L202.399 27.388H199.411L193.63 39.8051L187.887 27.388H184.705Z" fill="white"/>
<path d="M217.519 44.7332V45.6256C217.519 48.4971 215.579 50.5925 212.126 50.5925C208.711 50.5925 206.732 48.3031 206.732 45.1988V35.0711C206.732 31.9668 208.711 29.6774 212.126 29.6774C215.579 29.6774 217.519 31.7728 217.519 34.6443V35.3039H220.352V34.7219C220.352 29.9491 217.015 27 212.126 27C207.042 27 203.783 30.1431 203.783 35.1487V45.1212C203.783 50.1268 207.198 53.2699 212.126 53.2699C217.015 53.2699 220.352 50.3209 220.352 45.548V44.7332H217.519Z" fill="white"/>
<path d="M227.449 27.388H224.5V52.8819H227.449V46.0525L231.756 40.1932L238.159 52.8819H241.496L233.813 37.7485L241.263 27.388H237.965L227.449 41.6677V27.388Z" fill="white"/>
<path d="M244.989 52.8819L246.812 47.0226H256.513L258.376 52.8819H261.441L253.215 27.388H250.227L242.078 52.8819H244.989ZM251.624 31.3848L255.776 44.4615H247.589L251.624 31.3848Z" fill="white"/>
<path d="M280.682 27.388H277.927V46.7897L267.062 27.388H264.423V52.8819H267.178V33.1697L278.237 52.8819H280.682V27.388Z" fill="white"/>
<path d="M87.8789 51.6339L87.8789 48.1906C87.8789 46.4614 86.8113 45.2134 85.1723 45.2134C83.9243 45.2134 83.1123 45.8599 82.7816 46.9425L82.7665 46.9425C82.4056 46.0103 81.6538 45.454 80.5562 45.454C79.0074 45.454 78 46.717 78 48.4612L78 51.6339L87.8789 51.6339ZM83.3078 48.2657C83.3078 47.1079 84.0145 46.4012 85.1272 46.4012C86.2098 46.4012 86.9165 47.123 86.9165 48.3259L86.9165 50.4911L83.3078 50.4911L83.3078 48.2657ZM78.9623 48.5665C78.9623 47.3786 79.5939 46.6268 80.6013 46.6268C81.6839 46.6268 82.3305 47.3485 82.3305 48.5063L82.3305 50.4911L78.9623 50.4911L78.9623 48.5665Z" fill="white"/>
<path d="M87.8789 36.453L83.6988 38.2723C83.2627 37.1597 82.2703 36.4379 80.9471 36.4379C79.1578 36.4379 78 37.8363 78 39.7609L78 42.7983L87.8789 42.7983L87.8789 41.6555L83.9845 41.6555L83.9845 39.8211C83.9845 39.6858 83.9694 39.5504 83.9694 39.4151L87.8789 37.701L87.8789 36.453ZM79.0074 39.8512C79.0074 38.4678 79.7743 37.6107 80.9622 37.6107C82.1801 37.6107 82.9921 38.4678 82.9921 39.8512L82.9921 41.6555L79.0074 41.6555L79.0074 39.8512Z" fill="white"/>
<path d="M83.6085 28.7146L82.5861 28.7146L82.5861 32.8346L79.0375 32.8346L79.0375 28.3387L78 28.3387L78 33.9774L87.8789 33.9774L87.8789 32.8346L83.6085 32.8346L83.6085 28.7146Z" fill="white"/>
</svg>
