<svg width="220" height="51" viewBox="0 0 220 51" fill="none" xmlns="http://www.w3.org/2000/svg">
<g clip-path="url(#clip0)">
<path d="M96.6118 25.7202L95.7072 24.795L101.255 19.1205V19.0588H101.316L104.09 16.2216V7.95661H108.492V11.719L116.272 3.70075C113.498 1.35694 109.94 0 106.08 0C97.1546 0 89.978 7.4015 89.978 16.4683C89.978 23.8698 94.7423 30.0994 101.255 32.1965V21.0326L96.6118 25.7202Z" fill="black"/>
<path d="M0 17.8872L10.7347 29.3595V18.504H12.2423V33.1836L1.50768 21.7113V32.5052H0V17.8872Z" fill="black"/>
<path d="M18.8158 28.5574L17.1875 32.5665H15.4989L21.8311 17.8252L27.9825 32.5665H26.2939L24.6656 28.5574H18.8158ZM21.7708 21.4643L19.4189 27.0771H24.0625L21.7708 21.4643Z" fill="black"/>
<path d="M31.9025 18.5039H34.4957C36.5461 18.5039 38.2347 18.8123 39.863 20.1692C41.431 21.5262 42.1547 23.4382 42.1547 25.5353C42.1547 27.5707 41.431 29.4211 39.9233 30.7781C38.295 32.2584 36.6667 32.5667 34.4957 32.5667H31.9628V18.5039H31.9025ZM34.556 31.0865C36.2446 31.0865 37.6316 30.8397 38.8981 29.6062C40.0439 28.4959 40.5867 27.0773 40.5867 25.4736C40.5867 23.87 39.9836 22.328 38.7775 21.2795C37.511 20.1692 36.124 19.9225 34.4957 19.9225H33.4101V31.0865H34.556Z" fill="black"/>
<path d="M50.1754 29.6061C50.1754 30.7164 50.1754 31.8883 49.5121 32.8135C48.9693 33.5536 48.0647 33.9854 47.1601 33.9854C46.2555 33.9854 45.4112 33.5536 44.7478 32.9368L45.5921 31.7032C46.0746 32.1967 46.4967 32.5051 47.2204 32.5051C48.7281 32.5051 48.7281 30.6547 48.7281 29.6061V18.5039H50.2357V29.6061H50.1754Z" fill="black"/>
<path d="M57.4123 28.5574L55.7841 32.5665H54.0955L60.4277 17.8252L66.579 32.5665H64.8904L63.2621 28.5574H57.4123ZM60.4277 21.4643L58.0757 27.0771H62.7194L60.4277 21.4643Z" fill="black"/>
<path d="M72.0669 19.9225V24.1167H76.6502V25.597H72.0669V32.5667H70.5592V18.5039H76.8311V19.9842H72.0669V19.9225Z" fill="black"/>
<path d="M82.6206 32.5051H81.1129V18.5039H82.6206V32.5051Z" fill="black"/>
<path d="M120.071 18.5039H122.122L115.669 25.0419L122.363 32.5667H120.252L114.644 26.1521L114.282 26.5222V32.5667H112.774V18.5039H114.282V24.5485L120.071 18.5039Z" fill="black"/>
<path d="M125.981 32.5051H124.474V18.5039H126.464C129.057 18.5039 131.469 19.1824 131.469 22.3897C131.469 24.5485 130.143 26.0904 128.032 26.2755L132.374 32.5667H130.504L126.343 26.3988H125.981V32.5051ZM125.981 24.9802H126.464C128.213 24.9802 129.962 24.6718 129.962 22.4514C129.962 20.1692 128.333 19.9225 126.464 19.9225H125.981V24.9802Z" fill="black"/>
<path d="M136.475 32.5051H134.967V18.5039H136.475V32.5051Z" fill="black"/>
<path d="M146.727 21.2174C146.184 20.2306 145.521 19.6755 144.375 19.6755C143.169 19.6755 142.083 20.539 142.083 21.8342C142.083 23.0678 143.289 23.6229 144.254 24.0547L145.159 24.4864C146.968 25.2883 148.476 26.2134 148.476 28.4339C148.476 30.9011 146.546 32.7514 144.134 32.7514C141.902 32.7514 140.274 31.2711 139.852 29.1124L141.36 28.6806C141.541 30.0992 142.626 31.2711 144.134 31.2711C145.581 31.2711 146.968 30.0992 146.968 28.5573C146.968 26.8919 145.702 26.3368 144.435 25.7817L143.591 25.4116C141.963 24.6715 140.576 23.808 140.576 21.8342C140.576 19.6755 142.385 18.2568 144.435 18.2568C145.943 18.2568 147.27 19.0587 147.993 20.4156L146.727 21.2174Z" fill="black"/>
<path d="M154.929 32.5051H153.421V19.9225H150.104V18.5039H158.306V19.9842H154.929V32.5051Z" fill="black"/>
<path d="M160.417 18.5039H167.533V19.9842H161.924V24.1784H167.352V25.6587H161.924V31.1481H167.533V32.6284H160.417V18.5039Z" fill="black"/>
<path d="M170.85 17.8872L181.524 29.3595V18.504H183.032V33.1836L172.297 21.7113V32.5052H170.79V17.8872H170.85Z" fill="black"/>
<path d="M192.741 21.2174C192.198 20.2306 191.535 19.6755 190.389 19.6755C189.183 19.6755 188.098 20.539 188.098 21.8342C188.098 23.0678 189.304 23.6229 190.269 24.0547L191.173 24.4864C192.982 25.2883 194.49 26.2134 194.49 28.4339C194.49 30.9011 192.56 32.7514 190.148 32.7514C187.917 32.7514 186.288 31.2711 185.866 29.1124L187.374 28.6806C187.555 30.0992 188.64 31.2711 190.148 31.2711C191.595 31.2711 192.982 30.0992 192.982 28.5573C192.982 26.8919 191.716 26.3368 190.45 25.7817L189.605 25.4116C187.977 24.6715 186.59 23.808 186.59 21.8342C186.59 19.6755 188.399 18.2568 190.45 18.2568C191.957 18.2568 193.284 19.0587 194.008 20.4156L192.741 21.2174Z" fill="black"/>
<path d="M197.325 18.5039H204.441V19.9842H198.832V24.1784H204.26V25.6587H198.832V31.1481H204.441V32.6284H197.325V18.5039Z" fill="black"/>
<path d="M207.758 17.8872L218.492 29.3595V18.504H220V33.1836L209.265 21.7113V32.5052H207.758V17.8872Z" fill="black"/>
<path d="M0.723684 44.2854V46.3208H2.95504V46.9993H0.723684V50.3916H0V43.6069H3.01535V44.2854H0.723684Z" fill="black"/>
<path d="M10.6744 48.4795L9.89044 50.3916H9.10645L12.1821 43.2368L15.1975 50.3916H14.3532L13.5692 48.4795H10.6744ZM12.1218 45.0255L10.976 47.7394H13.2676L12.1218 45.0255Z" fill="black"/>
<path d="M25.0878 44.902C24.8465 44.4086 24.4847 44.1619 23.9419 44.1619C23.3389 44.1619 22.8564 44.5936 22.8564 45.2104C22.8564 45.8272 23.4595 46.0739 23.8816 46.259L24.3038 46.444C25.1481 46.8141 25.9321 47.3075 25.9321 48.356C25.9321 49.528 24.9671 50.4531 23.8213 50.4531C22.7358 50.4531 21.9518 49.7747 21.7709 48.6644L22.4946 48.4794C22.6152 49.1579 23.0976 49.7747 23.8213 49.7747C24.545 49.7747 25.2084 49.2196 25.2084 48.4177C25.2084 47.6159 24.6053 47.3692 24.0022 47.0608L23.5198 46.9374C22.7358 46.5674 22.0724 46.1973 22.0724 45.2104C22.0724 44.1619 22.977 43.4834 23.9419 43.4834C24.6656 43.4834 25.329 43.8535 25.6908 44.5319L25.0878 44.902Z" fill="black"/>
<path d="M34.9178 50.3916H34.1941V44.2854H32.5658V43.6069H36.5461V44.2854H34.9178V50.3916Z" fill="black"/>
<path d="M44.2653 50.3916H43.5416V43.6069H44.2653V50.3916Z" fill="black"/>
<path d="M58.0154 46.9991C58.0154 47.9243 57.9551 48.6644 57.352 49.4046C56.7489 50.1447 55.784 50.5148 54.8794 50.5148C53.0099 50.5148 51.4419 48.9112 51.4419 46.9991C51.4419 45.0254 53.0099 43.4834 54.9397 43.4834C56.0855 43.4834 57.0505 44.0385 57.7741 44.9637L57.2314 45.4571C56.6886 44.6553 55.9046 44.1619 54.9397 44.1619C53.432 44.1619 52.2259 45.4571 52.2259 46.9991C52.2259 47.7393 52.5274 48.4177 53.0099 48.9112C53.4923 49.4046 54.216 49.7747 54.8794 49.7747C56.0252 49.7747 57.2314 48.9112 57.2314 47.6159H55.2412V46.9374H58.0154V46.9991Z" fill="black"/>
<path d="M69.4134 46.321V43.5454H70.1371V50.3301H69.4134V46.9994H65.9759V50.3301H65.2522V43.5454H65.9759V46.321H69.4134Z" fill="black"/>
<path d="M77.7357 43.6069H81.1732V44.2854H78.4594V46.3208H81.1129V46.9993H78.4594V49.6515H81.1732V50.33H77.7357V43.6069Z" fill="black"/>
<path d="M90.4002 50.3916H89.6765V44.2854H88.0482V43.6069H92.0285V44.2854H90.4002V50.3916Z" fill="black"/>
<path d="M101.979 44.9022C101.738 44.4087 101.376 44.162 100.833 44.162C100.23 44.162 99.7479 44.5938 99.7479 45.2106C99.7479 45.8274 100.351 46.0741 100.773 46.2591L101.195 46.4442C102.04 46.8142 102.824 47.3077 102.824 48.3562C102.824 49.5281 101.859 50.4533 100.713 50.4533C99.6273 50.4533 98.8433 49.7748 98.6624 48.6646L99.386 48.4796C99.5067 49.158 99.9891 49.7748 100.713 49.7748C101.436 49.7748 102.1 49.2197 102.1 48.4179C102.1 47.6161 101.497 47.3693 100.894 47.0609L100.472 46.8759C99.6876 46.5058 99.0242 46.1358 99.0242 45.1489C99.0242 44.1003 99.9288 43.4219 100.894 43.4219C101.617 43.4219 102.281 43.7919 102.643 44.4704L101.979 44.9022Z" fill="black"/>
<path d="M110.844 44.2854V46.3208H113.076V46.9993H110.844V50.3916H110.121V43.6069H113.136V44.2854H110.844Z" fill="black"/>
<path d="M127.067 46.9992C127.067 48.973 125.499 50.5149 123.569 50.5149C121.639 50.5149 120.071 48.973 120.071 46.9992C120.071 45.0255 121.639 43.4835 123.569 43.4835C125.499 43.4835 127.067 45.0255 127.067 46.9992ZM120.916 46.9992C120.916 48.5412 122.122 49.8365 123.629 49.8365C125.137 49.8365 126.343 48.5412 126.343 46.9992C126.343 45.4573 125.137 44.162 123.629 44.162C122.122 44.162 120.916 45.4573 120.916 46.9992ZM123.207 42.1883C123.207 42.435 122.966 42.6817 122.725 42.6817C122.484 42.6817 122.242 42.435 122.242 42.1883C122.242 41.9415 122.484 41.6948 122.725 41.6948C123.026 41.6948 123.207 41.8799 123.207 42.1883ZM124.956 42.1883C124.956 42.435 124.715 42.6817 124.474 42.6817C124.232 42.6817 123.991 42.435 123.991 42.1883C123.991 41.9415 124.232 41.6948 124.474 41.6948C124.775 41.6948 124.956 41.8799 124.956 42.1883Z" fill="black"/>
<path d="M135.027 50.3916H134.304V43.6069H135.269C136.535 43.6069 137.681 43.977 137.681 45.4573C137.681 46.5059 137.018 47.246 135.992 47.3077L138.103 50.3916H137.198L135.208 47.3694H135.027V50.3916ZM135.027 46.7526H135.269C136.113 46.7526 136.957 46.5675 136.957 45.519C136.957 44.4088 136.173 44.2854 135.269 44.2854H135.027V46.7526Z" fill="black"/>
<path d="M146.124 43.1748L148.536 48.911L150.948 43.1748L152.275 50.3913H151.491L150.647 45.7653L148.476 50.638L146.365 45.7653L145.521 50.3913H144.737L146.124 43.1748Z" fill="black"/>
<path d="M159.331 43.6069H162.769V44.2854H160.055V46.3208H162.708V46.9993H160.055V49.6515H162.769V50.33H159.331V43.6069Z" fill="black"/>
<path d="M170.247 43.6069H171.513C172.538 43.6069 173.322 43.7303 174.106 44.4088C174.89 45.0872 175.192 46.0124 175.192 46.9993C175.192 47.9862 174.83 48.8497 174.106 49.5281C173.322 50.2683 172.538 50.3916 171.453 50.3916H170.247V43.6069ZM171.513 49.7132C172.297 49.7132 173.021 49.5898 173.624 49.0347C174.167 48.5413 174.468 47.8011 174.468 47.061C174.468 46.2591 174.167 45.519 173.624 45.0256C173.021 44.4704 172.358 44.3471 171.574 44.3471H171.031V49.7748H171.513V49.7132Z" fill="black"/>
<path d="M183.152 49.7132H184.962V50.3916H182.368V43.6069H183.092V49.7132H183.152Z" fill="black"/>
<path d="M192.681 50.3916H191.957V43.6069H192.681V50.3916Z" fill="black"/>
<path d="M200.28 43.2983L205.466 48.8495V43.5451H206.19V50.6382L201.003 45.087V50.3298H200.28V43.2983Z" fill="black"/>
<path d="M219.94 46.9991C219.94 47.9243 219.879 48.6644 219.276 49.4046C218.673 50.1447 217.708 50.5148 216.804 50.5148C214.934 50.5148 213.366 48.9112 213.366 46.9991C213.366 45.0254 214.934 43.4834 216.864 43.4834C218.01 43.4834 218.975 44.0385 219.698 44.9637L219.156 45.4571C218.613 44.6553 217.829 44.1619 216.864 44.1619C215.356 44.1619 214.15 45.4571 214.15 46.9991C214.15 47.7393 214.452 48.4177 214.934 48.9112C215.417 49.4046 216.14 49.7747 216.804 49.7747C217.95 49.7747 219.156 48.9112 219.156 47.6159H217.166V46.9374H219.94V46.9991Z" fill="black"/>
</g>
<defs>
<clipPath id="clip0">
<rect width="220" height="50.7002" fill="white"/>
</clipPath>
</defs>
</svg>
