<svg width="278" height="62" viewBox="0 0 278 62" fill="none" xmlns="http://www.w3.org/2000/svg">
<path d="M122.082 31.4526L120.939 30.3212L127.95 23.382V23.3066H128.026L131.532 19.837V9.72993H137.095V14.3309L146.926 4.52555C143.42 1.65937 138.924 0 134.047 0C122.768 0 113.7 9.0511 113.7 20.1387C113.7 29.1898 119.72 36.8078 127.95 39.3723V25.7202L122.082 31.4526Z" fill="white"/>
<path d="M0 21.8735L13.5647 35.9027V22.6278H15.4698V40.5791L1.90515 26.5499V39.7494H0V21.8735Z" fill="white"/>
<path d="M23.7763 34.9222L21.7187 39.8249H19.585L27.5866 21.7981L35.3596 39.8249H33.2259L31.1683 34.9222H23.7763ZM27.5104 26.2482L24.5384 33.112H30.4062L27.5104 26.2482Z" fill="white"/>
<path d="M40.313 22.6277H43.5899C46.1809 22.6277 48.3146 23.0048 50.3722 24.6642C52.3536 26.3235 53.268 28.6617 53.268 31.2262C53.268 33.7153 52.3536 35.9781 50.4484 37.6374C48.3908 39.4476 46.3333 39.8248 43.5899 39.8248H40.3892V22.6277H40.313ZM43.6661 38.0145C45.7998 38.0145 47.5526 37.7128 49.1529 36.2043C50.6008 34.8467 51.2867 33.1119 51.2867 31.1508C51.2867 29.1897 50.5246 27.3041 49.0005 26.0218C47.4002 24.6642 45.6474 24.3625 43.5899 24.3625H42.2181V38.0145H43.6661Z" fill="white"/>
<path d="M63.4035 36.2043C63.4035 37.562 63.4035 38.9951 62.5652 40.1265C61.8794 41.0316 60.7363 41.5596 59.5932 41.5596C58.4501 41.5596 57.3832 41.0316 56.5449 40.2773L57.6118 38.7688C58.2215 39.3722 58.7549 39.7493 59.6694 39.7493C61.5745 39.7493 61.5745 37.4866 61.5745 36.2043V22.6277H63.4797V36.2043H63.4035Z" fill="white"/>
<path d="M72.5483 34.9222L70.4907 39.8249H68.3569L76.3586 21.7981L84.1316 39.8249H81.9978L79.9403 34.9222H72.5483ZM76.3586 26.2482L73.3865 33.112H79.2544L76.3586 26.2482Z" fill="white"/>
<path d="M91.0663 24.3625V29.4914H96.8579V31.3017H91.0663V39.8248H89.1611V22.6277H97.0866V24.4379H91.0663V24.3625Z" fill="white"/>
<path d="M104.402 39.7493H102.497V22.6277H104.402V39.7493Z" fill="white"/>
<path d="M151.726 22.6277H154.317L146.163 30.6228L154.622 39.8248H151.955L144.868 31.9805L144.411 32.433V39.8248H142.505V22.6277H144.411V30.0194L151.726 22.6277Z" fill="white"/>
<path d="M159.195 39.7493H157.29V22.6277H159.804C163.081 22.6277 166.129 23.4574 166.129 27.3795C166.129 30.0194 164.453 31.9051 161.786 32.1313L167.273 39.8248H164.91L159.652 32.2822H159.195V39.7493ZM159.195 30.5474H159.804C162.014 30.5474 164.224 30.1703 164.224 27.4549C164.224 24.6642 162.167 24.3625 159.804 24.3625H159.195V30.5474Z" fill="white"/>
<path d="M172.454 39.7493H170.549V22.6277H172.454V39.7493Z" fill="white"/>
<path d="M185.41 25.9465C184.724 24.7397 183.886 24.0608 182.438 24.0608C180.914 24.0608 179.542 25.1168 179.542 26.7007C179.542 28.2093 181.066 28.8881 182.285 29.4161L183.428 29.9441C185.715 30.9246 187.62 32.056 187.62 34.7713C187.62 37.7883 185.181 40.0511 182.133 40.0511C179.313 40.0511 177.256 38.2409 176.722 35.601L178.627 35.073C178.856 36.8078 180.228 38.2409 182.133 38.2409C183.962 38.2409 185.715 36.8078 185.715 34.9222C185.715 32.8857 184.114 32.2068 182.514 31.528L181.447 31.0754C179.389 30.1703 177.637 29.1144 177.637 26.7007C177.637 24.0608 179.923 22.326 182.514 22.326C184.419 22.326 186.096 23.3066 187.01 24.966L185.41 25.9465Z" fill="white"/>
<path d="M195.774 39.7493H193.869V24.3625H189.677V22.6277H200.041V24.4379H195.774V39.7493Z" fill="white"/>
<path d="M202.708 22.6277H211.701V24.4379H204.614V29.5669H211.472V31.3771H204.614V38.09H211.701V39.9002H202.708V22.6277Z" fill="white"/>
<path d="M215.892 21.8735L229.381 35.9027V22.6278H231.286V40.5791L217.721 26.5499V39.7494H215.816V21.8735H215.892Z" fill="white"/>
<path d="M243.555 25.9465C242.869 24.7397 242.031 24.0608 240.583 24.0608C239.059 24.0608 237.687 25.1168 237.687 26.7007C237.687 28.2093 239.211 28.8881 240.43 29.4161L241.573 29.9441C243.86 30.9246 245.765 32.056 245.765 34.7713C245.765 37.7883 243.326 40.0511 240.278 40.0511C237.458 40.0511 235.401 38.2409 234.867 35.601L236.772 35.073C237.001 36.8078 238.373 38.2409 240.278 38.2409C242.107 38.2409 243.86 36.8078 243.86 34.9222C243.86 32.8857 242.259 32.2068 240.659 31.528L239.592 31.0754C237.534 30.1703 235.782 29.1144 235.782 26.7007C235.782 24.0608 238.068 22.326 240.659 22.326C242.564 22.326 244.241 23.3066 245.155 24.966L243.555 25.9465Z" fill="white"/>
<path d="M249.347 22.6277H258.339V24.4379H251.252V29.5669H258.11V31.3771H251.252V38.09H258.339V39.9002H249.347V22.6277Z" fill="white"/>
<path d="M262.53 21.8735L276.095 35.9027V22.6278H278V40.5791L264.435 26.5499V39.7494H262.53V21.8735Z" fill="white"/>
<path d="M0.914474 54.1557V56.6448H3.7341V57.4745H0.914474V61.6229H0V53.326H3.81031V54.1557H0.914474Z" fill="white"/>
<path d="M13.4887 59.2846L12.498 61.6228H11.5073L15.3938 52.8734L19.2041 61.6228H18.1373L17.1466 59.2846H13.4887ZM15.3176 55.0608L13.8697 58.3795H16.7655L15.3176 55.0608Z" fill="white"/>
<path d="M31.7016 54.91C31.3968 54.3066 30.9395 54.0049 30.2537 54.0049C29.4916 54.0049 28.882 54.5328 28.882 55.2871C28.882 56.0414 29.644 56.3431 30.1775 56.5693L30.7109 56.7956C31.7778 57.2482 32.7685 57.8516 32.7685 59.1338C32.7685 60.5669 31.5492 61.6983 30.1013 61.6983C28.7296 61.6983 27.7389 60.8686 27.5103 59.5109L28.4247 59.2847C28.5771 60.1143 29.1868 60.8686 30.1013 60.8686C31.0157 60.8686 31.854 60.1898 31.854 59.2092C31.854 58.2287 31.0919 57.927 30.3299 57.5499L29.7202 57.399C28.7296 56.9465 27.8913 56.4939 27.8913 55.2871C27.8913 54.0049 29.0344 53.1752 30.2537 53.1752C31.1682 53.1752 32.0064 53.6277 32.4637 54.4574L31.7016 54.91Z" fill="white"/>
<path d="M44.1234 61.6229H43.2089V54.1557H41.1514V53.326H46.181V54.1557H44.1234V61.6229Z" fill="white"/>
<path d="M55.9355 61.6229H55.021V53.326H55.9355V61.6229Z" fill="white"/>
<path d="M73.3104 57.4744C73.3104 58.6058 73.2342 59.5109 72.4721 60.416C71.71 61.3212 70.4908 61.7737 69.3477 61.7737C66.9853 61.7737 65.0039 59.8126 65.0039 57.4744C65.0039 55.0608 66.9853 53.1752 69.4239 53.1752C70.8718 53.1752 72.0911 53.854 73.0056 54.9854L72.3197 55.5888C71.6338 54.6083 70.6432 54.0049 69.4239 54.0049C67.5187 54.0049 65.9946 55.5888 65.9946 57.4744C65.9946 58.3795 66.3756 59.2092 66.9853 59.8126C67.5949 60.416 68.5094 60.8686 69.3477 60.8686C70.7956 60.8686 72.3197 59.8126 72.3197 58.2287H69.8049V57.399H73.3104V57.4744Z" fill="white"/>
<path d="M87.7133 56.6448V53.2506H88.6278V61.5474H87.7133V57.4745H83.3696V61.5474H82.4551V53.2506H83.3696V56.6448H87.7133Z" fill="white"/>
<path d="M98.2295 53.326H102.573V54.1557H99.144V56.6448H102.497V57.4745H99.144V60.7178H102.573V61.5475H98.2295V53.326Z" fill="white"/>
<path d="M114.233 61.6229H113.318V54.1557H111.261V53.326H116.29V54.1557H114.233V61.6229Z" fill="white"/>
<path d="M128.865 54.91C128.56 54.3065 128.103 54.0048 127.417 54.0048C126.655 54.0048 126.045 54.5328 126.045 55.2871C126.045 56.0413 126.807 56.343 127.341 56.5693L127.874 56.7956C128.941 57.2482 129.932 57.8516 129.932 59.1338C129.932 60.5669 128.712 61.6983 127.264 61.6983C125.893 61.6983 124.902 60.8686 124.673 59.5109L125.588 59.2846C125.74 60.1143 126.35 60.8686 127.264 60.8686C128.179 60.8686 129.017 60.1898 129.017 59.2092C129.017 58.2287 128.255 57.927 127.493 57.5499L126.96 57.3236C125.969 56.871 125.131 56.4185 125.131 55.2117C125.131 53.9294 126.274 53.0997 127.493 53.0997C128.407 53.0997 129.246 53.5523 129.703 54.382L128.865 54.91Z" fill="white"/>
<path d="M140.067 54.1557V56.6448H142.886V57.4745H140.067V61.6229H139.152V53.326H142.963V54.1557H140.067Z" fill="white"/>
<path d="M160.566 57.4744C160.566 59.888 158.585 61.7737 156.147 61.7737C153.708 61.7737 151.727 59.888 151.727 57.4744C151.727 55.0608 153.708 53.1751 156.147 53.1751C158.585 53.1751 160.566 55.0608 160.566 57.4744ZM152.793 57.4744C152.793 59.3601 154.318 60.944 156.223 60.944C158.128 60.944 159.652 59.3601 159.652 57.4744C159.652 55.5888 158.128 54.0048 156.223 54.0048C154.318 54.0048 152.793 55.5888 152.793 57.4744ZM155.689 51.5912C155.689 51.8929 155.384 52.1946 155.08 52.1946C154.775 52.1946 154.47 51.8929 154.47 51.5912C154.47 51.2895 154.775 50.9878 155.08 50.9878C155.461 50.9878 155.689 51.2141 155.689 51.5912ZM157.899 51.5912C157.899 51.8929 157.594 52.1946 157.29 52.1946C156.985 52.1946 156.68 51.8929 156.68 51.5912C156.68 51.2895 156.985 50.9878 157.29 50.9878C157.671 50.9878 157.899 51.2141 157.899 51.5912Z" fill="white"/>
<path d="M170.625 61.6229H169.711V53.326H170.93C172.531 53.326 173.978 53.7786 173.978 55.5888C173.978 56.8711 173.14 57.7762 171.845 57.8516L174.512 61.6229H173.369L170.854 57.927H170.625V61.6229ZM170.625 57.1728H170.93C171.997 57.1728 173.064 56.9465 173.064 55.6643C173.064 54.3066 172.073 54.1557 170.93 54.1557H170.625V57.1728Z" fill="white"/>
<path d="M184.647 52.798L187.696 59.8126L190.744 52.798L192.42 61.6228H191.43L190.363 55.9659L187.619 61.9245L184.952 55.9659L183.885 61.6228H182.895L184.647 52.798Z" fill="white"/>
<path d="M201.336 53.326H205.68V54.1557H202.251V56.6448H205.604V57.4745H202.251V60.7178H205.68V61.5475H201.336V53.326Z" fill="white"/>
<path d="M215.13 53.326H216.73C218.026 53.326 219.016 53.4769 220.007 54.3066C220.998 55.1363 221.379 56.2677 221.379 57.4745C221.379 58.6813 220.922 59.7372 220.007 60.5669C219.016 61.472 218.026 61.6229 216.654 61.6229H215.13V53.326ZM216.73 60.7932C217.721 60.7932 218.635 60.6424 219.397 59.9635C220.083 59.3601 220.464 58.455 220.464 57.5499C220.464 56.5694 220.083 55.6643 219.397 55.0608C218.635 54.382 217.797 54.2312 216.806 54.2312H216.121V60.8686H216.73V60.7932Z" fill="white"/>
<path d="M231.438 60.7932H233.724V61.6229H230.447V53.326H231.362V60.7932H231.438Z" fill="white"/>
<path d="M243.478 61.6229H242.564V53.326H243.478V61.6229Z" fill="white"/>
<path d="M253.081 52.9489L259.634 59.7372V53.2506H260.549V61.9245L253.995 55.1362V61.5474H253.081V52.9489Z" fill="white"/>
<path d="M277.924 57.4744C277.924 58.6058 277.847 59.5109 277.085 60.416C276.323 61.3212 275.104 61.7737 273.961 61.7737C271.599 61.7737 269.617 59.8126 269.617 57.4744C269.617 55.0608 271.599 53.1752 274.037 53.1752C275.485 53.1752 276.704 53.854 277.619 54.9854L276.933 55.5888C276.247 54.6083 275.256 54.0049 274.037 54.0049C272.132 54.0049 270.608 55.5888 270.608 57.4744C270.608 58.3795 270.989 59.2092 271.599 59.8126C272.208 60.416 273.123 60.8686 273.961 60.8686C275.409 60.8686 276.933 59.8126 276.933 58.2287H274.418V57.399H277.924V57.4744Z" fill="white"/>
</svg>
