<svg width="292" height="59" viewBox="0 0 292 59" fill="none" xmlns="http://www.w3.org/2000/svg">
<g clip-path="url(#clip0)">
<path d="M113.056 17.6594C113.26 18.0654 112.308 21.5837 110.129 28.2821C108.632 32.9507 107.271 37.0103 106.114 40.3934C105.229 38.4312 103.867 34.5069 101.962 28.6881C99.9197 22.3957 98.9668 18.742 99.0348 17.7271V17.6594H94.4745C94.6787 17.8624 95.019 18.6067 95.5635 19.8246C94.4745 23.7489 93.5896 26.6583 92.909 28.5528C91.5477 32.8831 90.1864 36.8074 88.9612 40.3934C88.0763 38.4312 86.715 34.5069 84.8092 28.6881C82.7672 22.3957 81.8143 18.742 81.8824 17.7271V17.6594H77.322C77.9346 18.0654 79.5682 22.3957 82.2908 30.7179C84.9453 38.9048 86.3066 43.5734 86.3066 44.656C86.3066 44.7237 86.2386 44.7236 86.2386 44.7913H89.9822C89.778 44.3853 90.6628 41.07 92.7048 34.7099C94.3383 29.5677 95.6996 25.5757 96.7206 22.8693C97.9458 26.32 99.239 30.109 100.6 34.3716C102.506 40.1904 103.391 43.6411 103.391 44.656C103.391 44.7237 103.323 44.7236 103.323 44.7913H107.067C106.794 44.3853 107.815 40.7317 110.061 33.898C113.465 23.4782 115.439 18.0654 116.051 17.6594H113.056ZM128.779 42.2202C127.826 42.6938 125.921 42.9645 123.062 42.9645C121.701 42.9645 120.68 42.9645 119.999 42.8968C119.863 41.3406 119.795 39.5138 119.795 37.3486V36.1308C120.203 36.1308 120.816 36.1308 121.633 36.0631C122.449 36.0631 123.062 36.0631 123.47 36.0631C125.104 36.0631 126.329 36.1984 127.01 36.4014V34.0333C126.193 34.3039 124.968 34.3716 123.266 34.3716C122.517 34.3716 121.36 34.3716 119.863 34.3039V33.8303C119.863 31.6652 119.931 29.7707 120.067 28.2145C121.564 28.1468 122.653 28.1468 123.402 28.1468C125.58 28.1468 127.214 28.2821 128.439 28.5528V26.3876C123.062 26.4553 118.978 26.3876 116.323 26.32C116.8 26.9966 117.072 29.4324 117.072 33.7626V37.281C117.072 41.6113 116.8 44.1147 116.323 44.7236H128.915V42.2202H128.779ZM147.77 37.281V33.7626C147.77 29.3647 148.042 26.9289 148.518 26.32H144.775C145.319 26.9289 145.66 29.4324 145.66 33.7626V40.0551C144.298 38.5665 142.324 36.1984 139.602 32.883C136.471 29.0264 134.769 26.8613 134.633 26.32L129.8 26.3876C130.481 26.7259 131.162 27.3349 131.91 28.0792C132.046 29.3647 132.115 31.2592 132.115 33.8303V37.3486C132.115 41.7466 131.842 44.1824 131.366 44.859H134.973C134.429 44.25 134.225 41.7466 134.225 37.3486V33.8303C134.225 33.492 134.225 32.9507 134.225 32.2741C134.225 31.5975 134.225 31.0562 134.225 30.7179C141.848 39.5814 145.591 44.3177 145.523 44.9266L148.45 44.859C148.042 44.1147 147.77 41.6113 147.77 37.281ZM168.053 37.281V33.7626C168.053 29.3647 168.325 26.9289 168.802 26.32H165.058C165.603 26.9289 165.943 29.4324 165.943 33.7626V40.0551C164.582 38.5665 162.608 36.1984 159.885 32.883C156.754 29.0264 155.053 26.8613 154.916 26.32L150.084 26.3876C150.764 26.7259 151.445 27.3349 152.194 28.0792C152.33 29.3647 152.398 31.2592 152.398 33.8303V37.3486C152.398 41.7466 152.126 44.1824 151.649 44.859H155.257C154.712 44.25 154.508 41.7466 154.508 37.3486V33.8303C154.508 33.492 154.508 32.9507 154.508 32.2741C154.508 31.5975 154.508 31.0562 154.508 30.7179C162.131 39.5814 165.875 44.3177 165.807 44.9266L168.734 44.859C168.325 44.1147 168.053 41.6113 168.053 37.281ZM184.389 42.2202C183.436 42.6938 181.53 42.9645 178.671 42.9645C177.31 42.9645 176.289 42.9645 175.608 42.8968C175.472 41.3406 175.404 39.5138 175.404 37.3486V36.1308C175.812 36.1308 176.425 36.1308 177.242 36.0631C178.059 36.0631 178.671 36.0631 179.08 36.0631C180.713 36.0631 181.938 36.1984 182.619 36.4014V34.0333C181.802 34.3039 180.577 34.3716 178.875 34.3716C178.127 34.3716 176.97 34.3716 175.472 34.3039V33.8303C175.472 31.6652 175.54 29.7707 175.676 28.2145C177.174 28.1468 178.263 28.1468 179.012 28.1468C181.19 28.1468 182.823 28.2821 184.048 28.5528V26.3876C178.671 26.4553 174.587 26.3876 171.933 26.32C172.409 26.9966 172.681 29.4324 172.681 33.7626V37.281C172.681 41.6113 172.409 44.1147 171.933 44.7236H184.525V42.2202H184.389ZM197.457 40.2581C196.096 38.6342 194.803 37.078 193.441 35.4542C194.667 35.1835 195.824 34.6422 196.777 33.7626C197.866 32.8154 198.478 31.7328 198.478 30.5826C198.478 28.4851 197.253 27.1996 194.735 26.5906C193.714 26.32 191.604 26.2523 188.541 26.2523C187.588 26.2523 186.907 26.2523 186.431 26.32C186.975 26.9289 187.179 29.3647 187.179 33.7626V37.3486C187.179 41.7466 186.907 44.1824 186.431 44.7913H190.923C190.378 44.1824 190.038 41.6789 190.038 37.281V35.9954C194.054 40.5287 196.232 43.4381 196.64 44.7913L200.997 44.7236L201.133 44.1824C200.724 43.9794 199.499 42.6938 197.457 40.2581ZM193.986 33.6273C193.101 34.1686 192.216 34.4392 191.263 34.4392C190.855 34.4392 190.446 34.3716 190.106 34.3039V29.8383C190.106 28.6204 190.378 28.0115 190.991 28.0115C193.986 28.0115 195.551 29.0941 195.551 31.3269C195.483 32.2064 194.939 32.9507 193.986 33.6273ZM217.468 37.281V33.7626C217.468 29.4324 217.741 26.9289 218.353 26.32H213.861C214.405 26.9289 214.61 29.3647 214.61 33.695V34.3039H206.17C206.17 29.5677 206.442 26.9289 207.054 26.32H202.494C203.039 26.9289 203.379 29.3647 203.379 33.7626V37.281C203.379 41.6113 203.107 44.1147 202.494 44.7236H207.054C206.51 44.1147 206.17 41.6113 206.17 37.281V36.0631H214.61V36.5367C214.61 41.4083 214.337 44.1824 213.861 44.7913H218.353C217.741 44.1147 217.468 41.6789 217.468 37.281ZM237.003 28.7558C235.165 26.9289 232.851 26.0493 230.197 26.0493C227.61 26.0493 225.296 26.9966 223.322 28.8911C221.348 30.7856 220.327 33.0184 220.327 35.5895C220.327 38.2959 221.28 40.5287 223.118 42.3555C224.956 44.1824 227.27 45.1296 229.924 45.1296C232.511 45.1296 234.825 44.1824 236.731 42.2879C238.705 40.3934 239.726 38.0929 239.726 35.5218C239.794 32.8154 238.841 30.5826 237.003 28.7558ZM234.961 41.07C233.736 42.6938 232.102 43.4381 230.129 43.4381C228.223 43.4381 226.589 42.5585 225.296 40.867C224.071 39.2431 223.458 37.484 223.458 35.5218C223.458 33.492 224.003 31.6652 225.16 30.1766C226.385 28.5528 228.019 27.7408 229.992 27.7408C231.966 27.7408 233.6 28.6204 234.961 30.3119C236.186 31.9358 236.731 33.695 236.731 35.7248C236.663 37.8223 236.118 39.5814 234.961 41.07ZM254.428 42.2202C253.475 42.6938 251.569 42.9645 248.71 42.9645C247.349 42.9645 246.328 42.9645 245.647 42.8968C245.511 41.273 245.443 39.3785 245.443 37.2133V33.7626C245.443 29.6353 245.647 27.1996 245.988 26.3876L241.768 26.32C242.312 26.9289 242.516 29.3647 242.516 33.695V37.281C242.516 41.6113 242.244 44.1147 241.768 44.7236H254.36V42.2202H254.428ZM276.957 36.875C276.277 32.7477 276.005 29.703 276.005 27.8762C276.005 26.9966 276.073 26.523 276.141 26.32H272.193C272.193 26.3876 272.261 26.4553 272.261 26.5906C272.261 27.7408 270.491 32.2741 266.884 40.2581C263.957 32.9507 262.528 28.4851 262.528 26.7259C262.528 26.5906 262.528 26.4553 262.528 26.3876L257.967 26.32C258.103 26.4553 258.103 27.0642 258.103 28.0115C258.103 29.906 257.763 32.883 257.15 36.9427C256.47 41.6113 255.789 44.1824 255.108 44.7913H258.784C258.648 44.1147 258.648 43.5734 258.648 43.0998C258.648 41.6113 258.784 39.4461 259.124 36.672C259.465 34.0333 259.873 31.8681 260.213 30.2443C261.166 32.6801 262.051 35.1158 262.936 37.5516C264.161 40.9347 264.842 43.2351 264.842 44.453C264.842 44.656 264.842 44.7913 264.774 44.7913H267.701C267.496 44.25 268.245 42.0849 269.811 38.1606C270.9 35.4542 271.989 33.0184 273.078 30.7179C273.622 33.695 273.963 35.9278 274.167 37.4163C274.507 39.7844 274.711 41.6113 274.711 42.9645C274.711 43.9794 274.643 44.5883 274.439 44.859H279.067C278.387 44.1824 277.706 41.5436 276.957 36.875ZM289.822 35.5218C288.46 34.7775 287.099 34.0333 285.738 33.2214C284.24 32.3418 283.56 31.3945 283.56 30.2443C283.56 29.4324 283.832 28.7558 284.445 28.2821C284.989 27.8085 285.738 27.5379 286.555 27.5379C287.644 27.5379 288.665 28.1468 289.618 29.297L290.775 26.8613C289.55 26.3876 288.324 26.1847 287.031 26.1847C285.193 26.1847 283.696 26.5906 282.539 27.4025C281.314 28.3498 280.633 29.6353 280.633 31.3945C280.633 32.8154 281.382 33.9656 282.811 34.9805C284.172 35.7248 285.466 36.4691 286.827 37.1457C288.256 38.0253 289.005 39.1078 289.005 40.3257C289.005 41.1376 288.665 41.8142 288.052 42.3555C287.44 42.8968 286.759 43.2351 285.942 43.2351C284.785 43.2351 283.219 42.6938 281.382 41.5436L280.361 44.047C281.654 44.7236 283.083 45.062 284.513 45.062C286.35 45.062 287.984 44.5883 289.481 43.7087C291.183 42.6938 292 41.273 292 39.5814C292 37.9576 291.319 36.6044 289.822 35.5218Z" fill="white"/>
<path d="M19.943 42.4908C22.0531 34.4392 25.3202 22.4632 27.0218 14.6146C26.2731 11.9759 25.1841 8.93114 23.9589 7.17197C23.9589 6.96898 23.8908 6.96898 23.9589 6.90132C27.4302 7.1043 28.1109 7.1043 29.1999 7.1043C30.9696 7.1043 31.3099 7.1043 34.4409 6.90132C34.1687 7.98389 34.9855 12.3818 35.4619 14.2087C36.6871 19.4185 41.6559 37.6192 43.1533 42.4908H43.3575C45.944 33.2889 48.9388 23.2075 49.7556 18.5389L32.0586 0.947195C30.7654 -0.338355 28.6554 -0.338355 27.2941 0.947195L12.1836 15.9678C13.2046 20.1628 18.2414 37.4839 19.6708 42.4231H19.943V42.4908Z" fill="white"/>
<path d="M0.95284 27.1319C-0.3404 28.4175 -0.3404 30.5149 0.95284 31.8682L12.0475 42.8968C10.55 37.4163 8.44002 31.3269 5.64934 22.531L0.95284 27.1319Z" fill="white"/>
<path d="M53.7715 22.531C52.5464 26.1847 53.1589 24.2225 51.185 30.7179C49.075 37.8223 49.2112 37.3487 47.5095 42.7615L58.468 31.8682C59.7613 30.5826 59.7613 28.4851 58.468 27.1319L53.7715 22.531Z" fill="white"/>
<path d="M29.4723 23.0723C26.6135 33.7626 23.3464 45.8062 21.3044 52.0986L27.2942 58.0528C28.5874 59.3383 30.6974 59.3383 32.0588 58.0528L38.0485 52.0986C36.8233 47.4301 32.9436 33.5597 29.7445 23.0723H29.4723Z" fill="white"/>
</g>
<defs>
<clipPath id="clip0">
<rect width="292" height="59" fill="white"/>
</clipPath>
</defs>
</svg>
